<svg width="23" height="20" viewBox="0 0 23 20" fill="none" xmlns="http://www.w3.org/2000/svg">
<path d="M11.3851 11.833L9.35514 5.74298L7.32514 11.833H11.3851ZM6.16514 15.458L5.00515 18.938H0.655151L7.18014 0.667969H11.5301L18.0551 18.938H13.7051L12.5451 15.458H6.16514Z" fill="black"/>
<path d="M18.1956 16.908C18.1956 16.328 18.4083 15.8253 18.8336 15.4C19.2783 14.9553 19.7906 14.733 20.3706 14.733C20.9506 14.733 21.4533 14.9553 21.8786 15.4C22.3233 15.8253 22.5456 16.328 22.5456 16.908C22.5456 17.488 22.3233 18.0003 21.8786 18.445C21.4533 18.8703 20.9506 19.083 20.3706 19.083C19.7906 19.083 19.2783 18.8703 18.8336 18.445C18.4083 18.0003 18.1956 17.488 18.1956 16.908Z" fill="black"/>
</svg>
