<svg width="24" height="22" viewBox="0 0 24 22" fill="none" xmlns="http://www.w3.org/2000/svg">
                                    <path d="M19.0028 8.28469C18.7433 8.31806 17.6622 8.61266 17.2996 8.70788C16.9097 8.83483 13.3556 12.1918 13.1214 13.0179C13.0695 13.3043 13.0442 13.7422 13.0442 14.154L13.0189 14.8197C13.0189 15.2966 13.126 16.0616 13.1779 16.4766C13.4108 16.5385 15.1014 16.4839 15.4134 16.5474L15.3755 17.3987C15.0714 17.3726 12.9238 17.3808 11.6983 17.3808C11.0742 17.3808 9.0736 17.4621 8.45818 17.4394L8.57461 16.6296C8.91193 16.597 10.3071 16.7028 10.6145 16.3073C10.7668 16.1096 10.7189 15.8996 10.7189 14.7578V14.2174C10.7189 13.9619 10.7189 13.4883 10.667 13.0447C10.5366 12.5686 7.40631 7.78826 6.60195 7.02652C6.37042 6.93131 4.90605 6.75308 4.54345 6.65705L4.52549 5.92624C4.70513 5.81393 6.33249 5.95309 7.91129 5.88148C8.94985 5.83428 11.3171 5.88148 11.6091 5.9238L11.5346 6.56834C11.2219 6.66356 9.72428 6.69855 9.33441 6.82551C10.3457 8.66474 11.9471 11.0346 12.4641 11.9542C12.7495 11.4472 15.2584 9.33777 15.3369 8.60859C14.9464 8.51337 13.6576 8.28469 13.4507 8.28469L13.3276 7.45459C13.6803 7.38623 15.5385 7.45459 16.4613 7.45459C17.2583 7.45459 18.9609 7.45459 19.4446 7.50342L19.0028 8.28469ZM12.0003 0C4.93333 0 0 4.52484 0 10.9996C0 17.4768 4.93333 22 12.0003 22C19.0653 22 24 17.4768 24 10.9996C24 4.52484 19.0653 0 12.0003 0Z" fill="#7B0099"/>
                                </svg>